/* XPM */
static char *lxterminal[] = {
/* columns rows colors chars-per-pixel */
"32 32 221 2",
"   c #125312531253",
".  c #148E148E1492",
"X  c #150915091509",
"o  c #161C161C161A",
"O  c #16EA16EA16EA",
"+  c #1801180117FA",
"@  c #18B318B318B3",
"#  c #1A281A281A0C",
"$  c #1B3F1B3F1B3F",
"%  c #1BD81BE21B7D",
"&  c #1BD91BDE1BC5",
"*  c #1CD01CD01C90",
"=  c #1CD01CD01CD2",
"-  c #1E191E191E15",
";  c #1EDA1EDA1EDA",
":  c #201D201D201D",
">  c #20B020B5203E",
",  c #213321332133",
"<  c #21C821C82114",
"1  c #224A224A2249",
"2  c #236623662367",
"3  c #248724872487",
"4  c #251E251E251E",
"5  c #263926392638",
"6  c #270927112647",
"7  c #26FA26FA26F1",
"8  c #284A284A284B",
"9  c #29352935287F",
"0  c #2944294428FF",
"q  c #2A9F2AA82976",
"w  c #2A532A532A28",
"e  c #2B262B272A1F",
"r  c #2B5C2B5C2B22",
"t  c #2BEB2BEB2BDA",
"y  c #2D122D122C35",
"u  c #2D0F2D0F2D0F",
"i  c #2E6F2E6F2E6F",
"p  c #2F302F302F30",
"a  c #303630382F08",
"s  c #30703070302D",
"d  c #310C310C2FF6",
"f  c #31FA31FA3113",
"g  c #33293329318B",
"h  c #31F631F631F6",
"j  c #3341334131F6",
"k  c #330333033304",
"l  c #34233423328E",
"z  c #343334373338",
"x  c #351635163376",
"c  c #347434743474",
"v  c #35AA35AF3406",
"b  c #355735573558",
"n  c #36253627345E",
"m  c #36B036B034FA",
"M  c #36F836F8356E",
"N  c #367E367E367E",
"B  c #3767376735E4",
"V  c #373337333733",
"C  c #38283828368D",
"Z  c #3854385436CD",
"A  c #38FA38FA3778",
"S  c #38583858384A",
"D  c #399439943815",
"F  c #390639063906",
"G  c #39F439F43863",
"H  c #3A593A5A38CE",
"J  c #3B033B03395E",
"K  c #39FF39FF39FF",
"L  c #3B943B9439EC",
"P  c #3B133B133B13",
"I  c #3C0E3C0E3A5A",
"U  c #3C8C3C8C3AD7",
"Y  c #3D403D403B6A",
"T  c #3C543C543C54",
"R  c #3E2E3E2E3C55",
"E  c #3EF23EF23C95",
"W  c #3F213F213D19",
"Q  c #3E353E353E35",
"!  c #3F4A3F4A3F4A",
"~  c #3FDC3FDC3DA5",
"^  c #406140613DEA",
"/  c #410741083E88",
"(  c #414F414F3ED5",
")  c #420942093F6D",
"_  c #42B742B74015",
"`  c #434343434078",
"'  c #43A243A240EE",
"]  c #426742674267",
"[  c #43BF43BF43BF",
"{  c #442A442A4167",
"}  c #44D244D24199",
"|  c #44A644A641CA",
" . c #45414541424E",
".. c #465A465A431F",
"X. c #4708470843C1",
"o. c #448D448D4490",
"O. c #44EE44EE44EE",
"+. c #4789478943FA",
"@. c #468246824682",
"#. c #472247224722",
"$. c #483648384482",
"%. c #4879487944E2",
"&. c #492349234550",
"*. c #4A474A474642",
"=. c #4B0E4B0E46F9",
"-. c #4C0C4C0F478E",
";. c #483948394820",
":. c #4C774C774833",
">. c #4D864D8648C8",
",. c #4D9C4D9B492E",
"<. c #4E394E3749AF",
"1. c #4F1C4F364A39",
"2. c #4BDA4BDA4BDA",
"3. c #4D144D144D14",
"4. c #505950654B38",
"5. c #50E151A34BBD",
"6. c #517451BA4C33",
"7. c #51EC520C4CBB",
"8. c #529D53174D64",
"9. c #53FA54B44EBB",
"0. c #504C504C504C",
"q. c #516A516A516A",
"w. c #5433543352EA",
"e. c #54B054B054B0",
"r. c #55CE55CE55CE",
"t. c #57E157E156A7",
"y. c #587B587B575F",
"u. c #58BA58BA58BA",
"i. c #596A596A57FE",
"p. c #599C599C599C",
"a. c #5A865A8658BB",
"s. c #5B775B7759A9",
"d. c #5BBF5BBF5BBF",
"f. c #5C705C705A9E",
"g. c #5D845D845B7C",
"h. c #5C2B5C2B5C2B",
"j. c #5E8A5E8A5C4B",
"k. c #5F7C5F7C5D19",
"l. c #5F215F215F21",
"z. c #607D607D5DE6",
"x. c #619861985EB6",
"c. c #628A628A5F8A",
"v. c #638263826078",
"b. c #64966496614D",
"n. c #659C659C6201",
"m. c #668A668A62D8",
"M. c #6747677C63AB",
"N. c #681568706474",
"B. c #68DD69616540",
"V. c #69C36A636619",
"C. c #6AC16B4266C2",
"Z. c #7B907B907B16",
"A. c #87FD87FD87D5",
"S. c #8917891788E0",
"D. c #89D989D98997",
"F. c #8AD28AD28A74",
"G. c #8B928B928B60",
"H. c #8C858C858C32",
"J. c #8D628D628CF1",
"K. c #8E588E5A8DBD",
"L. c #8F3B8F458E81",
"P. c #903190318F53",
"I. c #911291199003",
"U. c #91EF91FE90D5",
"Y. c #91DE91DE91DE",
"T. c #92CC92F09180",
"R. c #974497449744",
"E. c #98D198D198D1",
"W. c #9B359B359B31",
"Q. c #A3C9A3C9A3C9",
"!. c #A434A434A434",
"~. c #A5D5A5D5A5D5",
"^. c #AA9BAA9BAA9B",
"/. c #AB66AB66AB66",
"(. c #AC2EAC38AB87",
"). c #B0C9B0C9B0C9",
"_. c #B678B678B678",
"`. c #BCF8BCF8BCE3",
"'. c #BD53BD55BD2C",
"]. c #BDAFBDB3BD9D",
"[. c #BF1EBF1EBF1E",
"{. c #BFD9BFD9BFD9",
"}. c #C059C055C03C",
"|. c #C0BFC0BFC0BF",
" X c #C1CFC1CFC1CF",
".X c #C2D7C2D7C2D7",
"XX c #C3DBC3DBC3DB",
"oX c #C4C3C4C3C4C5",
"OX c #C5DFC5DFC5DF",
"+X c #C6C9C6C9C6C9",
"@X c #C7FDC7FDC7FD",
"#X c #C916C916C916",
"$X c #C96CC96CC96C",
"%X c #CA94CA94CA94",
"&X c #CBDCCBDCCBDC",
"*X c #CCF6CCF6CCF6",
"=X c #CDC1CDC1CDC1",
"-X c #CE96CE96CE96",
";X c #CFF3CFF3CFF3",
":X c #D0C5D0C5D0C5",
">X c #D1BBD1BBD1BB",
",X c #D52CD52CD52C",
"<X c #D5CDD5CDD5CD",
"1X c #D6D3D6D3D6D3",
"2X c #D921D921D921",
"3X c #D9CBD9CBD9CB",
"4X c #DABFDABFDABF",
"5X c #DC15DC15DC15",
"6X c #DCEBDCEBDCEB",
"7X c #DDA3DDA3DDA3",
"8X c #E147E147E147",
"9X c #E262E262E262",
"0X c #E452E452E452",
"qX c #E5D4E5D4E5D4",
"wX c #E8FEE8FEE8FE",
"eX c #E9F8E9F8E9F8",
"rX c #EB16EB16EB16",
"tX c #ED5BED5BED5B",
"yX c #EEC7EEC7EEC7",
"uX c #F044F044F044",
"iX c None",
/* pixels */
"iXiXiXiXiXiXiXiXiXiXiXiXiXiXiXiXiXiXiXiXiXiXiXiXiXiXiXiXiXiXiXiX",
"iXiXiXiXiXiXiXiXiXiXiXiXiXiXiXiXiXiXiXiXiXiXiXiXiXiXiXiXiXiXiXiX",
"iXiXiXiXiXiXiXiXiXiXiXiXiXiXiXiXiXiXiXiXiXiXiXiXiXiXiXiXiXiXiXiX",
"iXiXiXoX}.'.'.'.'.'.'.'.'.'.'.'.`.`.`.`.`.`.`.`.`.`.`.OXiXiXiXiX",
"iXiXiX(.C.C.V.B.N.M.m.n.b.v.c.x.z.k.j.g.f.s.a.i.y.t.w.Z.OXiXiXiX",
"iXiXiXT.5.9.8.6.4.1.>.-.*.&.+...} ` ) ^ E Y I J Z a < ;.[.iXiXiX",
"iXiXiXT.1.7.4.1.,.:.=.&.$... .' ) / W R U L B y > +   o.[.iXiXiX",
"iXiXiXU.-.<.:.=.*.%.X. .{ _ ( ~ R Y I H x 9 * o . X   O.[.iXiXiX",
"iXiXiXI.$.*.&.+...| ` ) ^ E Y I J D l 6 # X . X X X   O.[.iXiXiX",
"iXiXiXP.} .. .' ) / W R U J G A l 6 # X . X X X X X   O.[.iXiXiX",
"iXiXiXL./ _ ( ~ R Y L H A C v q % X . X X X X X X X   O.[.iXiXiX",
"iXiXiXK.Y E Y I J D Z M n a > o . X X X X X X X X X   O.[.iXiXiX",
"iXiXiXJ.G J G A B n x j q & o O O O o o X X X X X X   O.[.iXiXiX",
"iXiXiXH.M C m x l l j 0 - = - - - - = $ # + o X X X   O.[.iXiXiX",
"iXiXiXG.j l g g z z w 1 2 4 5 7 7 5 4 2 , ; & @ o X   O.[.iXiXiX",
"iXiXiXF.a d f z z r 5 0 r u i p p i u r 8 4 1 ; $ O   O.[.iXiXiX",
"iXiXiXD.y a g j t 0 u s k b N V V N c h p t 8 3 : & X O.[.iXiXiX",
"iXiXiXS.e a s w w i k N K T Q ! ! Q T F b h u 0 3 : @ @.[.iXiXiX",
"iXiXiXA.9 r 7 8 u h N P ! ] O.#.#.O.] Q K b s t 7 1 # #.[.iXiXiX",
"iXiXiXW.S k b K ! [ ;.3.q.r.p.h.d.u.e.0.2.#.] Q F c u l.oXiXiXiX",
"iXiXiX;XXX|..XXXoX+X@X$X%X&X*X-X=X*X&X%X#X@XOXoX.X X[.=XXXiXiXiX",
"iXiXiX*X2X2X2X2X2X3X3X3X3X3X3X3X4X4X3X3X3X2X1X<X<X,X;X1X].iXiXiX",
"iXiXiX].+X+X+X+X+X+X+X+XOX|.|. X{.]. X+X+X+XOXOXOXOXOXOXiXiXiXiX",
"iXiXiXiXiXiXiXiXiXiXiXiXiXE.^.).Q.R.G.iXiXiXiXiXiXiXiXiXiXiXiXiX",
"iXiXiXiXiXiXiXiXiXiXiXiXiX_.>X3X@X_.!.iXiXiXiXiXiXiXiXiXiXiXiXiX",
"iXiXiXiXiXiXiXiXiXiXiXyX4X8XeXtX4X-X|.eXwXiXiXiXiXiXiXiXiXiXiXiX",
"iXiXiXiXiXiXiXiXiXiXwXwX1XtXuXyX4X:X+X6XrX>XiXiXiXiXiXiXiXiXiXiX",
"iXiXiXiXiXiXiXiXiXiXOX9X0X5X6X7X;X&X4XqX2X~.iXiXiXiXiXiXiXiXiXiX",
"iXiXiXiXiXiXiXiXiXiXiX/.:X2X:X-X-X>X2XXXY.iXiXiXiXiXiXiXiXiXiXiX",
"iXiXiXiXiXiXiXiXiXiXiXiXiXiXiXiXiXiXiXiXiXiXiXiXiXiXiXiXiXiXiXiX",
"iXiXiXiXiXiXiXiXiXiXiXiXiXiXiXiXiXiXiXiXiXiXiXiXiXiXiXiXiXiXiXiX",
"iXiXiXiXiXiXiXiXiXiXiXiXiXiXiXiXiXiXiXiXiXiXiXiXiXiXiXiXiXiXiXiX"
};
